<?xml version="1.0" encoding="UTF-8" standalone="no"?>
<svg
   xmlns:dc="http://purl.org/dc/elements/1.1/"
   xmlns:cc="http://creativecommons.org/ns#"
   xmlns:rdf="http://www.w3.org/1999/02/22-rdf-syntax-ns#"
   xmlns:svg="http://www.w3.org/2000/svg"
   xmlns="http://www.w3.org/2000/svg"
   viewBox="0 0 300 300"
   height="300"
   width="300"
   xml:space="preserve"
   id="svg3732"
   version="1.1"><metadata
     id="metadata3738"><rdf:RDF><cc:Work
         rdf:about=""><dc:format>image/svg+xml</dc:format><dc:type
           rdf:resource="http://purl.org/dc/dcmitype/StillImage" /><dc:title></dc:title></cc:Work></rdf:RDF></metadata><defs
     id="defs3736"><clipPath
       id="clipPath3748"
       clipPathUnits="userSpaceOnUse"><path
         id="path3746"
         d="M 0,612 H 792 V 0 H 0 Z" /></clipPath><clipPath
       id="clipPath3756"
       clipPathUnits="userSpaceOnUse"><path
         id="path3754"
         d="m 290.296,244.769 h 51.447 v -3.389 h -51.447 z" /></clipPath><clipPath
       id="clipPath3772"
       clipPathUnits="userSpaceOnUse"><path
         id="path3770"
         d="m 329.629,384.769 h 51.448 v -3.389 h -51.448 z" /></clipPath><clipPath
       id="clipPath3788"
       clipPathUnits="userSpaceOnUse"><path
         id="path3786"
         d="m 217.963,363.102 h 51.447 v -3.389 h -51.447 z" /></clipPath><clipPath
       id="clipPath3804"
       clipPathUnits="userSpaceOnUse"><path
         id="path3802"
         d="m 144.105,340.83 h 29.297 v -3.389 h -29.297 z" /></clipPath><clipPath
       id="clipPath3820"
       clipPathUnits="userSpaceOnUse"><path
         id="path3818"
         d="m 128.42,348.045 h 29.297 v -3.389 H 128.42 Z" /></clipPath><clipPath
       id="clipPath3840"
       clipPathUnits="userSpaceOnUse"><path
         id="path3838"
         d="m 239.535,251.447 h 2.081 V 239.36 h -2.081 z" /></clipPath><clipPath
       id="clipPath3864"
       clipPathUnits="userSpaceOnUse"><path
         id="path3862"
         d="m 194.314,219.042 h 10.168 v -5.922 h -10.168 z" /></clipPath><clipPath
       id="clipPath3888"
       clipPathUnits="userSpaceOnUse"><path
         id="path3886"
         d="m 162.933,238.514 h 9.094 v -7.645 h -9.094 z" /></clipPath><clipPath
       id="clipPath3912"
       clipPathUnits="userSpaceOnUse"><path
         id="path3910"
         d="m 169.644,287.097 h 9.21 v -11.469 h -9.21 z" /></clipPath><clipPath
       id="clipPath3936"
       clipPathUnits="userSpaceOnUse"><path
         id="path3934"
         d="m 360.935,440.125 h 7.713 V 435.8 h -7.713 z" /></clipPath><clipPath
       id="clipPath3968"
       clipPathUnits="userSpaceOnUse"><path
         id="path3966"
         d="m 257.197,411.522 h 3.434 v -11.21 h -3.434 z" /></clipPath><clipPath
       id="clipPath3992"
       clipPathUnits="userSpaceOnUse"><path
         id="path3990"
         d="m 236.713,390.038 h 10.94 v -8.095 h -10.94 z" /></clipPath><clipPath
       id="clipPath4016"
       clipPathUnits="userSpaceOnUse"><path
         id="path4014"
         d="m 156.953,366.577 h 9.489 v -5.736 h -9.489 z" /></clipPath><clipPath
       id="clipPath4040"
       clipPathUnits="userSpaceOnUse"><path
         id="path4038"
         d="m 141.622,372.79 h 9.498 v -5.741 h -9.498 z" /></clipPath><clipPath
       id="clipPath4064"
       clipPathUnits="userSpaceOnUse"><path
         id="path4062"
         d="m 295.232,279.56 h 9.541 v -1.759 h -9.541 z" /></clipPath><clipPath
       id="clipPath4088"
       clipPathUnits="userSpaceOnUse"><path
         id="path4086"
         d="m 319.504,279.03 h 12.183 v -1.436 h -12.183 z" /></clipPath><clipPath
       id="clipPath4112"
       clipPathUnits="userSpaceOnUse"><path
         id="path4110"
         d="m 273.382,329.411 h 3.565 v -11.744 h -3.565 z" /></clipPath><clipPath
       id="clipPath4136"
       clipPathUnits="userSpaceOnUse"><path
         id="path4134"
         d="m 350.355,329.975 h 1.855 v -11.362 h -1.855 z" /></clipPath><clipPath
       id="clipPath4160"
       clipPathUnits="userSpaceOnUse"><path
         id="path4158"
         d="m 215.915,440.787 h 4.006 v -11.48 h -4.006 z" /></clipPath><clipPath
       id="clipPath4184"
       clipPathUnits="userSpaceOnUse"><path
         id="path4182"
         d="m 248.574,451.393 h 5.328 v -11.279 h -5.328 z" /></clipPath><clipPath
       id="clipPath4208"
       clipPathUnits="userSpaceOnUse"><path
         id="path4206"
         d="m 364.219,167.965 h 10.321 v -8.694 h -10.321 z" /></clipPath><clipPath
       id="clipPath4232"
       clipPathUnits="userSpaceOnUse"><path
         id="path4230"
         d="m 304.494,141.069 h 14.455 v -5.417 h -14.455 z" /></clipPath><clipPath
       id="clipPath4264"
       clipPathUnits="userSpaceOnUse"><path
         id="path4262"
         d="m 376.593,115.526 h 7.045 v -8.897 h -7.045 z" /></clipPath><clipPath
       id="clipPath4280"
       clipPathUnits="userSpaceOnUse"><path
         id="path4278"
         d="m 333.898,95.0367 h 9.877 v -3.1622 h -9.877 z" /></clipPath><clipPath
       id="clipPath4304"
       clipPathUnits="userSpaceOnUse"><path
         id="path4302"
         d="m 389.123,241.67 h 4.223 v -9.322 h -4.223 z" /></clipPath><clipPath
       id="clipPath4328"
       clipPathUnits="userSpaceOnUse"><path
         id="path4326"
         d="m 459.224,255.26 h 2.293 v -10.238 h -2.293 z" /></clipPath><clipPath
       id="clipPath4352"
       clipPathUnits="userSpaceOnUse"><path
         id="path4350"
         d="m 427.832,177.225 h 8.771 v -9.813 h -8.771 z" /></clipPath><clipPath
       id="clipPath4368"
       clipPathUnits="userSpaceOnUse"><path
         id="path4366"
         d="m 437.597,202.676 h 9.371 v -9.935 h -9.371 z" /></clipPath><clipPath
       id="clipPath4392"
       clipPathUnits="userSpaceOnUse"><path
         id="path4390"
         d="m 418.855,196.919 h 13.376 v -5.938 h -13.376 z" /></clipPath><clipPath
       id="clipPath4416"
       clipPathUnits="userSpaceOnUse"><path
         id="path4414"
         d="m 578.728,370.725 h 4.401 v -9.386 h -4.401 z" /></clipPath><clipPath
       id="clipPath4440"
       clipPathUnits="userSpaceOnUse"><path
         id="path4438"
         d="m 670.593,397.563 h 8.2 v -6.428 h -8.2 z" /></clipPath><clipPath
       id="clipPath4464"
       clipPathUnits="userSpaceOnUse"><path
         id="path4462"
         d="m 641.192,341.492 h 9.178 v -7.749 h -9.178 z" /></clipPath><clipPath
       id="clipPath4480"
       clipPathUnits="userSpaceOnUse"><path
         id="path4478"
         d="m 631.845,365.636 h 11.539 v -2.222 h -11.539 z" /></clipPath><clipPath
       id="clipPath4504"
       clipPathUnits="userSpaceOnUse"><path
         id="path4502"
         d="m 620.702,361.598 h 6.812 v -8.493 h -6.812 z" /></clipPath><clipPath
       id="clipPath4528"
       clipPathUnits="userSpaceOnUse"><path
         id="path4526"
         d="m 522.269,177.776 h 10.452 v -7.263 h -10.452 z" /></clipPath><clipPath
       id="clipPath4552"
       clipPathUnits="userSpaceOnUse"><path
         id="path4550"
         d="m 559.772,194.233 h 11.522 v -7.737 h -11.522 z" /></clipPath><clipPath
       id="clipPath4584"
       clipPathUnits="userSpaceOnUse"><path
         id="path4582"
         d="m 498.476,232.016 h 5.017 v -11.773 h -5.017 z" /></clipPath><clipPath
       id="clipPath4608"
       clipPathUnits="userSpaceOnUse"><path
         id="path4606"
         d="m 471.244,382.481 h 9.774 v -7.637 h -9.774 z" /></clipPath><clipPath
       id="clipPath4632"
       clipPathUnits="userSpaceOnUse"><path
         id="path4630"
         d="m 450.293,378.101 h 10.08 v -5.72 h -10.08 z" /></clipPath><clipPath
       id="clipPath4788"
       clipPathUnits="userSpaceOnUse"><path
         id="path4786"
         d="M 612.688,400.121 C 583.147,386.172 570.46,350.79 584.408,321.249 v 0 l 35.935,16.966 c -4.593,9.729 -0.415,21.379 9.312,25.972 v 0 c 9.727,4.592 21.377,0.416 25.97,-9.312 v 0 l 35.935,16.967 c -10.102,21.394 -31.444,33.948 -53.668,33.948 v 0 c -8.464,0 -17.056,-1.821 -25.204,-5.669" /></clipPath><clipPath
       id="clipPath4808"
       clipPathUnits="userSpaceOnUse"><path
         id="path4806"
         d="M 0,612 H 792 V 0 H 0 Z" /></clipPath><clipPath
       id="clipPath4916"
       clipPathUnits="userSpaceOnUse"><path
         id="path4914"
         d="m 365.016,135.878 h 11.321 v -7.024 h -11.321 z" /></clipPath><clipPath
       id="clipPath5112"
       clipPathUnits="userSpaceOnUse"><path
         id="path5110"
         d="m 225.428,458.246 h 3.82 v -2.289 h -3.82 z" /></clipPath><clipPath
       id="clipPath5208"
       clipPathUnits="userSpaceOnUse"><path
         id="path5206"
         d="m 221.623,221.93 h 16.338 v -5.52 h -16.338 z" /></clipPath><clipPath
       id="clipPath5260"
       clipPathUnits="userSpaceOnUse"><path
         id="path5258"
         d="m 193.057,255.387 h 10.875 v -2.398 h -10.875 z" /></clipPath><clipPath
       id="clipPath5300"
       clipPathUnits="userSpaceOnUse"><path
         id="path5298"
         d="m 611.186,312.519 h 62.446 v -3.388 h -62.446 z" /></clipPath><clipPath
       id="clipPath5316"
       clipPathUnits="userSpaceOnUse"><path
         id="path5314"
         d="m 496.975,305.853 h 37.324 v -3.389 h -37.324 z" /></clipPath><clipPath
       id="clipPath5332"
       clipPathUnits="userSpaceOnUse"><path
         id="path5330"
         d="m 509.641,139.853 h 71.389 v -3.389 h -71.389 z" /></clipPath><clipPath
       id="clipPath5348"
       clipPathUnits="userSpaceOnUse"><path
         id="path5346"
         d="m 414.916,142.542 h 51.491 v -3.389 h -51.491 z" /></clipPath><clipPath
       id="clipPath5364"
       clipPathUnits="userSpaceOnUse"><path
         id="path5362"
         d="m 123.748,163.911 h 85.266 v -3.388 h -85.266 z" /></clipPath><clipPath
       id="clipPath5380"
       clipPathUnits="userSpaceOnUse"><path
         id="path5378"
         d="m 314.166,64.5419 h 82.929 v -3.3885 h -82.929 z" /></clipPath><clipPath
       id="clipPath5396"
       clipPathUnits="userSpaceOnUse"><path
         id="path5394"
         d="m 209.315,310.415 h 2.239 v -8.484 h -2.239 z" /></clipPath><clipPath
       id="clipPath5412"
       clipPathUnits="userSpaceOnUse"><path
         id="path5410"
         d="m 214.305,315.999 h 2.282 v -7.461 h -2.282 z" /></clipPath><clipPath
       id="clipPath5432"
       clipPathUnits="userSpaceOnUse"><path
         id="path5430"
         d="m 348.749,436.688 h 5.063 v -9.485 h -5.063 z" /></clipPath><clipPath
       clipPathUnits="userSpaceOnUse"
       id="clipPath6386"><path
         d="M 0,612 H 792 V 0 H 0 Z"
         id="path6384" /></clipPath><clipPath
       clipPathUnits="userSpaceOnUse"
       id="clipPath6394"><path
         d="m 290.296,244.769 h 51.447 v -3.389 h -51.447 z"
         id="path6392" /></clipPath><clipPath
       clipPathUnits="userSpaceOnUse"
       id="clipPath6410"><path
         d="m 329.629,384.769 h 51.448 v -3.389 h -51.448 z"
         id="path6408" /></clipPath><clipPath
       clipPathUnits="userSpaceOnUse"
       id="clipPath6426"><path
         d="m 217.963,363.102 h 51.447 v -3.389 h -51.447 z"
         id="path6424" /></clipPath><clipPath
       clipPathUnits="userSpaceOnUse"
       id="clipPath6442"><path
         d="m 144.105,340.83 h 29.297 v -3.389 h -29.297 z"
         id="path6440" /></clipPath><clipPath
       clipPathUnits="userSpaceOnUse"
       id="clipPath6458"><path
         d="m 128.42,348.045 h 29.297 v -3.389 H 128.42 Z"
         id="path6456" /></clipPath><clipPath
       clipPathUnits="userSpaceOnUse"
       id="clipPath6478"><path
         d="m 239.535,251.447 h 2.081 V 239.36 h -2.081 z"
         id="path6476" /></clipPath><clipPath
       clipPathUnits="userSpaceOnUse"
       id="clipPath6502"><path
         d="m 194.314,219.042 h 10.168 v -5.922 h -10.168 z"
         id="path6500" /></clipPath><clipPath
       clipPathUnits="userSpaceOnUse"
       id="clipPath6526"><path
         d="m 162.933,238.514 h 9.094 v -7.645 h -9.094 z"
         id="path6524" /></clipPath><clipPath
       clipPathUnits="userSpaceOnUse"
       id="clipPath6550"><path
         d="m 169.644,287.097 h 9.21 v -11.469 h -9.21 z"
         id="path6548" /></clipPath><clipPath
       clipPathUnits="userSpaceOnUse"
       id="clipPath6574"><path
         d="m 360.935,440.125 h 7.713 V 435.8 h -7.713 z"
         id="path6572" /></clipPath><clipPath
       clipPathUnits="userSpaceOnUse"
       id="clipPath6606"><path
         d="m 257.197,411.522 h 3.434 v -11.21 h -3.434 z"
         id="path6604" /></clipPath><clipPath
       clipPathUnits="userSpaceOnUse"
       id="clipPath6630"><path
         d="m 236.713,390.038 h 10.94 v -8.095 h -10.94 z"
         id="path6628" /></clipPath><clipPath
       clipPathUnits="userSpaceOnUse"
       id="clipPath6654"><path
         d="m 156.953,366.577 h 9.489 v -5.736 h -9.489 z"
         id="path6652" /></clipPath><clipPath
       clipPathUnits="userSpaceOnUse"
       id="clipPath6678"><path
         d="m 141.622,372.79 h 9.498 v -5.741 h -9.498 z"
         id="path6676" /></clipPath><clipPath
       clipPathUnits="userSpaceOnUse"
       id="clipPath6702"><path
         d="m 295.232,279.56 h 9.541 v -1.759 h -9.541 z"
         id="path6700" /></clipPath><clipPath
       clipPathUnits="userSpaceOnUse"
       id="clipPath6726"><path
         d="m 319.504,279.03 h 12.183 v -1.436 h -12.183 z"
         id="path6724" /></clipPath><clipPath
       clipPathUnits="userSpaceOnUse"
       id="clipPath6750"><path
         d="m 273.382,329.411 h 3.565 v -11.744 h -3.565 z"
         id="path6748" /></clipPath><clipPath
       clipPathUnits="userSpaceOnUse"
       id="clipPath6774"><path
         d="m 350.355,329.975 h 1.855 v -11.362 h -1.855 z"
         id="path6772" /></clipPath><clipPath
       clipPathUnits="userSpaceOnUse"
       id="clipPath6798"><path
         d="m 215.915,440.787 h 4.006 v -11.48 h -4.006 z"
         id="path6796" /></clipPath><clipPath
       clipPathUnits="userSpaceOnUse"
       id="clipPath6822"><path
         d="m 248.574,451.393 h 5.328 v -11.279 h -5.328 z"
         id="path6820" /></clipPath><clipPath
       clipPathUnits="userSpaceOnUse"
       id="clipPath6846"><path
         d="m 364.219,167.965 h 10.321 v -8.694 h -10.321 z"
         id="path6844" /></clipPath><clipPath
       clipPathUnits="userSpaceOnUse"
       id="clipPath6870"><path
         d="m 304.494,141.069 h 14.455 v -5.417 h -14.455 z"
         id="path6868" /></clipPath><clipPath
       clipPathUnits="userSpaceOnUse"
       id="clipPath6902"><path
         d="m 376.593,115.526 h 7.045 v -8.897 h -7.045 z"
         id="path6900" /></clipPath><clipPath
       clipPathUnits="userSpaceOnUse"
       id="clipPath6918"><path
         d="m 333.898,95.0367 h 9.877 v -3.1622 h -9.877 z"
         id="path6916" /></clipPath><clipPath
       clipPathUnits="userSpaceOnUse"
       id="clipPath6942"><path
         d="m 389.123,241.67 h 4.223 v -9.322 h -4.223 z"
         id="path6940" /></clipPath><clipPath
       clipPathUnits="userSpaceOnUse"
       id="clipPath6966"><path
         d="m 459.224,255.26 h 2.293 v -10.238 h -2.293 z"
         id="path6964" /></clipPath><clipPath
       clipPathUnits="userSpaceOnUse"
       id="clipPath6990"><path
         d="m 427.832,177.225 h 8.771 v -9.813 h -8.771 z"
         id="path6988" /></clipPath><clipPath
       clipPathUnits="userSpaceOnUse"
       id="clipPath7006"><path
         d="m 437.597,202.676 h 9.371 v -9.935 h -9.371 z"
         id="path7004" /></clipPath><clipPath
       clipPathUnits="userSpaceOnUse"
       id="clipPath7030"><path
         d="m 418.855,196.919 h 13.376 v -5.938 h -13.376 z"
         id="path7028" /></clipPath><clipPath
       clipPathUnits="userSpaceOnUse"
       id="clipPath7054"><path
         d="m 578.728,370.725 h 4.401 v -9.386 h -4.401 z"
         id="path7052" /></clipPath><clipPath
       clipPathUnits="userSpaceOnUse"
       id="clipPath7078"><path
         d="m 670.593,397.563 h 8.2 v -6.428 h -8.2 z"
         id="path7076" /></clipPath><clipPath
       clipPathUnits="userSpaceOnUse"
       id="clipPath7102"><path
         d="m 641.192,341.492 h 9.178 v -7.749 h -9.178 z"
         id="path7100" /></clipPath><clipPath
       clipPathUnits="userSpaceOnUse"
       id="clipPath7118"><path
         d="m 631.845,365.636 h 11.539 v -2.222 h -11.539 z"
         id="path7116" /></clipPath><clipPath
       clipPathUnits="userSpaceOnUse"
       id="clipPath7142"><path
         d="m 620.702,361.598 h 6.812 v -8.493 h -6.812 z"
         id="path7140" /></clipPath><clipPath
       clipPathUnits="userSpaceOnUse"
       id="clipPath7166"><path
         d="m 522.269,177.776 h 10.452 v -7.263 h -10.452 z"
         id="path7164" /></clipPath><clipPath
       clipPathUnits="userSpaceOnUse"
       id="clipPath7190"><path
         d="m 559.772,194.233 h 11.522 v -7.737 h -11.522 z"
         id="path7188" /></clipPath><clipPath
       clipPathUnits="userSpaceOnUse"
       id="clipPath7222"><path
         d="m 498.476,232.016 h 5.017 v -11.773 h -5.017 z"
         id="path7220" /></clipPath><clipPath
       clipPathUnits="userSpaceOnUse"
       id="clipPath7246"><path
         d="m 471.244,382.481 h 9.774 v -7.637 h -9.774 z"
         id="path7244" /></clipPath><clipPath
       clipPathUnits="userSpaceOnUse"
       id="clipPath7270"><path
         d="m 450.293,378.101 h 10.08 v -5.72 h -10.08 z"
         id="path7268" /></clipPath><clipPath
       clipPathUnits="userSpaceOnUse"
       id="clipPath7426"><path
         d="M 612.688,400.121 C 583.147,386.172 570.46,350.79 584.408,321.249 v 0 l 35.935,16.966 c -4.593,9.729 -0.415,21.379 9.312,25.972 v 0 c 9.727,4.592 21.377,0.416 25.97,-9.312 v 0 l 35.935,16.967 c -10.102,21.394 -31.444,33.948 -53.668,33.948 v 0 c -8.464,0 -17.056,-1.821 -25.204,-5.669"
         id="path7424" /></clipPath><clipPath
       clipPathUnits="userSpaceOnUse"
       id="clipPath7446"><path
         d="M 0,612 H 792 V 0 H 0 Z"
         id="path7444" /></clipPath><clipPath
       clipPathUnits="userSpaceOnUse"
       id="clipPath7554"><path
         d="m 365.016,135.878 h 11.321 v -7.024 h -11.321 z"
         id="path7552" /></clipPath><clipPath
       clipPathUnits="userSpaceOnUse"
       id="clipPath7750"><path
         d="m 225.428,458.246 h 3.82 v -2.289 h -3.82 z"
         id="path7748" /></clipPath><clipPath
       clipPathUnits="userSpaceOnUse"
       id="clipPath7846"><path
         d="m 221.623,221.93 h 16.338 v -5.52 h -16.338 z"
         id="path7844" /></clipPath><clipPath
       clipPathUnits="userSpaceOnUse"
       id="clipPath7898"><path
         d="m 193.057,255.387 h 10.875 v -2.398 h -10.875 z"
         id="path7896" /></clipPath><clipPath
       clipPathUnits="userSpaceOnUse"
       id="clipPath7938"><path
         d="m 611.186,312.519 h 62.446 v -3.388 h -62.446 z"
         id="path7936" /></clipPath><clipPath
       clipPathUnits="userSpaceOnUse"
       id="clipPath7954"><path
         d="m 496.975,305.853 h 37.324 v -3.389 h -37.324 z"
         id="path7952" /></clipPath><clipPath
       clipPathUnits="userSpaceOnUse"
       id="clipPath7970"><path
         d="m 509.641,139.853 h 71.389 v -3.389 h -71.389 z"
         id="path7968" /></clipPath><clipPath
       clipPathUnits="userSpaceOnUse"
       id="clipPath7986"><path
         d="m 414.916,142.542 h 51.491 v -3.389 h -51.491 z"
         id="path7984" /></clipPath><clipPath
       clipPathUnits="userSpaceOnUse"
       id="clipPath8002"><path
         d="m 123.748,163.911 h 85.266 v -3.388 h -85.266 z"
         id="path8000" /></clipPath><clipPath
       clipPathUnits="userSpaceOnUse"
       id="clipPath8018"><path
         d="m 314.166,64.5419 h 82.929 v -3.3885 h -82.929 z"
         id="path8016" /></clipPath><clipPath
       clipPathUnits="userSpaceOnUse"
       id="clipPath8034"><path
         d="m 209.315,310.415 h 2.239 v -8.484 h -2.239 z"
         id="path8032" /></clipPath><clipPath
       clipPathUnits="userSpaceOnUse"
       id="clipPath8050"><path
         d="m 214.305,315.999 h 2.282 v -7.461 h -2.282 z"
         id="path8048" /></clipPath><clipPath
       clipPathUnits="userSpaceOnUse"
       id="clipPath8070"><path
         d="m 348.749,436.688 h 5.063 v -9.485 h -5.063 z"
         id="path8068" /></clipPath></defs><g
     style="display:inline"
     transform="matrix(1.3333333,0,0,-1.3333333,0,200)"
     id="g3740"><g
       transform="translate(-429.33186,-108.27342)"
       id="g11355"><path
         id="path4516"
         style="fill:#dcddde;fill-opacity:1;fill-rule:nonzero;stroke:none"
         d="m 531.8115,174.083 c -1.003,2.307 -2.037,4.451 -2.963,6.281 l -7.275,-3.298 c 3.221,-6.319 6.319,-13.916 6.88,-18.905 -2.278,1.268 -7.749,5.069 -12.303,9.079 l -7.685,-15.923 10.051,3.808 c 5.749,-4.08 10.887,-6.486 13.649,-5.937 0.165,0.034 0.325,0.074 0.479,0.121 1.74,0.536 3,1.862 3.457,3.638 1.226,4.775 -0.177,11.689 -4.29,21.136" /><path
         id="path4520"
         style="fill:none;stroke:#636567;stroke-width:1.5;stroke-linecap:butt;stroke-linejoin:round;stroke-miterlimit:10;stroke-dasharray:none;stroke-opacity:1"
         d="m 531.8115,174.083 c -1.003,2.307 -2.037,4.451 -2.963,6.281 l -7.275,-3.298 c 3.221,-6.319 6.319,-13.916 6.88,-18.905 -2.278,1.268 -7.749,5.069 -12.303,9.079 l -7.685,-15.923 10.051,3.808 c 5.749,-4.08 10.887,-6.486 13.649,-5.937 0.165,0.034 0.325,0.074 0.479,0.121 1.74,0.536 3,1.862 3.457,3.638 1.226,4.775 -0.177,11.689 -4.29,21.136 z" /><g
         clip-path="url(#clipPath4528)"
         id="g4534"
         style="opacity:0.10000598"><g
           transform="translate(523.8115,170.5127)"
           id="g4532"><path
             d="M 0,0 C 0,0 3.703,3.066 8.91,3.355 8.408,4.59 7.29,7.001 7.116,7.251 6.942,7.502 -1.312,3.703 -1.543,3.549 -1.389,3.201 -0.135,0.348 0,0"
             style="fill:#231f20;fill-opacity:1;fill-rule:nonzero;stroke:none"
             id="path4530" /></g></g><path
         id="path4540"
         style="fill:#dcddde;fill-opacity:1;fill-rule:nonzero;stroke:none"
         d="m 586.4502,168.165 c -5.45,15.435 -21.622,29.327 -22.178,29.839 l -5.422,-5.882 c 0.161,-0.147 20.604,-17.894 25.047,-36.731 l 15.506,13.939 z" /><path
         id="path4544"
         style="fill:none;stroke:#636567;stroke-width:1.5;stroke-linecap:butt;stroke-linejoin:round;stroke-miterlimit:10;stroke-dasharray:none;stroke-opacity:1"
         d="m 586.4502,168.165 c -5.45,15.435 -21.622,29.327 -22.178,29.839 l -5.422,-5.882 c 0.161,-0.147 20.604,-17.894 25.047,-36.731 l 15.506,13.939 z" /><g
         clip-path="url(#clipPath4552)"
         id="g4558"
         style="opacity:0.10000598"><g
           transform="translate(563.6064,186.4951)"
           id="g4556"><path
             d="m 0,0 7.687,5.729 c 0,0 -1.159,1.462 -2.167,1.966 C 4.511,8.199 -3.633,4.07 -3.834,3.818 -3.675,3.643 -0.927,1.039 0,0"
             style="fill:#231f20;fill-opacity:1;fill-rule:nonzero;stroke:none"
             id="path4554" /></g></g><path
         id="path4564"
         style="fill:#dcddde;fill-opacity:1;fill-rule:nonzero;stroke:none"
         d="m 575.0693,240.3242 c -1.878,0 -3.554,1.33 -3.923,3.243 -0.417,2.164 0.993,4.256 3.152,4.682 1.126,0.231 26.373,5.874 21.053,43.589 -0.308,2.187 1.215,4.211 3.403,4.519 2.191,0.309 4.211,-1.215 4.519,-3.402 6.415,-45.488 -27.102,-52.492 -27.441,-52.558 -0.256,-0.049 -0.511,-0.073 -0.763,-0.073" /><path
         id="path4568"
         style="fill:none;stroke:#636567;stroke-width:1.5;stroke-linecap:butt;stroke-linejoin:round;stroke-miterlimit:10;stroke-dasharray:none;stroke-opacity:1"
         d="m 575.0693,240.3242 c -1.878,0 -3.554,1.33 -3.923,3.243 -0.417,2.164 0.993,4.256 3.152,4.682 1.126,0.231 26.373,5.874 21.053,43.589 -0.308,2.187 1.215,4.211 3.403,4.519 2.191,0.309 4.211,-1.215 4.519,-3.402 6.415,-45.488 -27.102,-52.492 -27.441,-52.558 -0.256,-0.049 -0.511,-0.073 -0.763,-0.073 z" /><path
         id="path4572"
         style="fill:#dcddde;fill-opacity:1;fill-rule:nonzero;stroke:none"
         d="m 479.6045,194.542 c -1.717,0 -3.304,1.114 -3.827,2.843 -6.66,22.025 2.365,28.882 5.331,31.135 11.09,8.421 23.444,0.562 23.966,0.223 1.851,-1.204 2.376,-3.681 1.171,-5.534 -0.654,-1.003 -0.08,-2.606 -1.179,-2.767 -0.888,0.182 -0.836,-0.451 -4.341,1.586 -0.386,0.224 -8.229,5.094 -14.777,0.12 -5.232,-3.973 -6.006,-10.896 -2.513,-22.447 0.639,-2.115 -0.557,-4.347 -2.671,-4.987 -0.387,-0.116 -0.776,-0.172 -1.16,-0.172" /><path
         id="path4576"
         style="fill:none;stroke:#636567;stroke-width:1.5;stroke-linecap:butt;stroke-linejoin:round;stroke-miterlimit:10;stroke-dasharray:none;stroke-opacity:1"
         d="m 479.6045,194.542 c -1.717,0 -3.304,1.114 -3.827,2.843 -6.66,22.025 2.365,28.882 5.331,31.135 11.09,8.421 23.444,0.562 23.966,0.223 1.851,-1.204 2.376,-3.681 1.171,-5.534 -0.654,-1.003 -0.08,-2.606 -1.179,-2.767 -0.888,0.182 -0.836,-0.451 -4.341,1.586 -0.386,0.224 -8.229,5.094 -14.777,0.12 -5.232,-3.973 -6.006,-10.896 -2.513,-22.447 0.639,-2.115 -0.557,-4.347 -2.671,-4.987 -0.387,-0.116 -0.776,-0.172 -1.16,-0.172 z" /><g
         clip-path="url(#clipPath4584)"
         id="g4590"
         style="opacity:0.10000598"><g
           transform="translate(499.6006,232.0156)"
           id="g4588"><path
             d="m 0,0 c 0,0 0.808,-5.542 -1.125,-9.682 0.873,-0.315 3.022,-1.647 3.99,-2.089 0.341,-0.156 1.054,9.728 1.027,10.142 C 3.588,-1.463 2.29,-0.69 0,0"
             style="fill:#231f20;fill-opacity:1;fill-rule:nonzero;stroke:none"
             id="path4586" /></g></g><path
         id="path4704"
         style="fill:#2dc5f4;fill-opacity:1;fill-rule:nonzero;stroke:none"
         d="m 532.7246,285.4082 0.809,-10.681 -16.201,-7.06 4.834,-83.834 15.216,6.58 0.784,-9.416 -32,-13.212 -6.667,103.382 z" /><path
         id="path4708"
         style="fill:none;stroke:#0a6a88;stroke-width:2;stroke-linecap:butt;stroke-linejoin:round;stroke-miterlimit:10;stroke-dasharray:none;stroke-opacity:1"
         d="m 532.7246,285.4082 0.809,-10.681 -16.201,-7.06 4.834,-83.834 15.216,6.58 0.784,-9.416 -32,-13.212 -6.667,103.382 z" /><path
         id="path4712"
         style="fill:#2dc5f4;fill-opacity:1;fill-rule:nonzero;stroke:none"
         d="m 550.3428,195.9687 0.782,-9.424 27.833,11.855 -2.666,105.683 -33.042,-14.458 0.736,-10.417 17.889,7.292 3.127,-84.248 z" /><path
         id="path4716"
         style="fill:none;stroke:#0a6a88;stroke-width:2;stroke-linecap:butt;stroke-linejoin:round;stroke-miterlimit:10;stroke-dasharray:none;stroke-opacity:1"
         d="m 550.3428,195.9687 0.782,-9.424 27.833,11.855 -2.666,105.683 -33.042,-14.458 0.736,-10.417 17.889,7.292 3.127,-84.248 z" /><path
         id="path4720"
         style="fill:#0a6a88;fill-opacity:1;fill-rule:nonzero;stroke:none"
         d="m 539.1318,240.9795 c 0.718,-7.741 -1.029,-14.232 -3.904,-14.499 -2.874,-0.267 -5.787,5.792 -6.505,13.533 -0.719,7.741 1.029,14.233 3.904,14.499 2.874,0.267 5.786,-5.792 6.505,-13.533" /><path
         id="path4724"
         style="fill:#ffffff;fill-opacity:1;fill-rule:nonzero;stroke:none"
         d="m 536.8496,245.6533 c 0.073,-2.125 -0.803,-3.881 -1.958,-3.921 -1.156,-0.04 -2.152,1.65 -2.227,3.775 -0.074,2.125 0.803,3.88 1.958,3.92 1.156,0.04 2.153,-1.649 2.227,-3.774" /><path
         id="path4728"
         style="fill:#ffffff;fill-opacity:1;fill-rule:nonzero;stroke:none"
         d="m 537.4941,240.291 c 0.024,-0.713 -0.289,-1.303 -0.701,-1.316 -0.412,-0.015 -0.767,0.551 -0.791,1.264 -0.026,0.713 0.289,1.303 0.701,1.318 0.412,0.013 0.766,-0.553 0.791,-1.266" /><path
         id="path4732"
         style="fill:#ffffff;fill-opacity:1;fill-rule:nonzero;stroke:none"
         d="m 535.2529,239.9248 c 0.02,-0.569 -0.337,-1.043 -0.797,-1.06 -0.461,-0.015 -0.849,0.433 -0.869,1.002 -0.021,0.57 0.337,1.044 0.797,1.06 0.46,0.017 0.849,-0.433 0.869,-1.002" /><path
         id="path4736"
         style="fill:#0a6a88;fill-opacity:1;fill-rule:nonzero;stroke:none"
         d="m 555.1084,247.0342 c 0.459,-7.761 -1.505,-14.189 -4.386,-14.36 -2.882,-0.171 -5.591,5.982 -6.05,13.743 -0.46,7.761 1.504,14.189 4.386,14.36 2.882,0.171 5.59,-5.982 6.05,-13.743" /><path
         id="path4740"
         style="fill:#ffffff;fill-opacity:1;fill-rule:nonzero;stroke:none"
         d="m 552.9834,251.7812 c 0.003,-2.126 -0.932,-3.852 -2.088,-3.853 -1.156,-0.001 -2.096,1.721 -2.099,3.847 -0.003,2.126 0.931,3.852 2.087,3.853 1.157,0.002 2.096,-1.721 2.1,-3.847" /><path
         id="path4744"
         style="fill:#ffffff;fill-opacity:1;fill-rule:nonzero;stroke:none"
         d="m 553.4482,246.4014 c 10e-4,-0.714 -0.332,-1.292 -0.744,-1.293 -0.413,-10e-4 -0.748,0.577 -0.749,1.291 -10e-4,0.713 0.333,1.292 0.745,1.292 0.412,0.001 0.747,-0.577 0.748,-1.29" /><path
         id="path4748"
         style="fill:#ffffff;fill-opacity:1;fill-rule:nonzero;stroke:none"
         d="m 551.1963,246.1104 c 0.001,-0.57 -0.372,-1.032 -0.832,-1.033 -0.46,0 -0.834,0.461 -0.835,1.03 -0.001,0.57 0.371,1.032 0.832,1.033 0.46,0 0.834,-0.461 0.835,-1.03" /><path
         id="path4752"
         style="fill:none;stroke:#0a6a88;stroke-width:1;stroke-linecap:round;stroke-linejoin:round;stroke-miterlimit:10;stroke-dasharray:none;stroke-opacity:1"
         d="m 524.5762,258.4062 c 0,0 -0.085,4.234 2.704,5.017" /><path
         id="path4756"
         style="fill:none;stroke:#0a6a88;stroke-width:1;stroke-linecap:round;stroke-linejoin:round;stroke-miterlimit:10;stroke-dasharray:none;stroke-opacity:1"
         d="m 550.4629,264.1475 c 0,0 2.277,0.334 3.783,-3.113" /><path
         id="path4760"
         style="fill:#0a6a88;fill-opacity:1;fill-rule:nonzero;stroke:#0a6a88;stroke-width:1;stroke-linecap:round;stroke-linejoin:round;stroke-miterlimit:10;stroke-dasharray:none;stroke-opacity:1"
         d="m 554.4033,225.8262 c 0,0 -18.378,-16.291 -29.056,3.142 0.947,-4.109 4.264,-25.415 10.862,-26.108 3.543,-0.371 7.829,1.87 8.44,17.016" /><path
         id="path4764"
         style="fill:none;stroke:#0a6a88;stroke-width:1;stroke-linecap:round;stroke-linejoin:round;stroke-miterlimit:10;stroke-dasharray:none;stroke-opacity:1"
         d="m 523.4814,229.3877 c 0,0 1.97,-1.342 3.565,0.776" /><path
         id="path4768"
         style="fill:#dcddde;fill-opacity:1;fill-rule:nonzero;stroke:#636567;stroke-width:1.5;stroke-linecap:round;stroke-linejoin:round;stroke-miterlimit:10;stroke-dasharray:none;stroke-opacity:1"
         d="m 591.5078,297.0557 c 0,0 -1.638,-4.862 0.852,-9.069" /><path
         id="path4772"
         style="fill:#dcddde;fill-opacity:1;fill-rule:nonzero;stroke:#636567;stroke-width:1.5;stroke-linecap:round;stroke-linejoin:round;stroke-miterlimit:10;stroke-dasharray:none;stroke-opacity:1"
         d="m 588.1709,294.8252 c 0,0 -0.986,-2.929 0.513,-5.463" /><path
         id="path4776"
         style="fill:#dcddde;fill-opacity:1;fill-rule:nonzero;stroke:#636567;stroke-width:1.5;stroke-linecap:round;stroke-linejoin:round;stroke-miterlimit:10;stroke-dasharray:none;stroke-opacity:1"
         d="m 605.4482,298.7119 c 0,0 2.757,-4.327 1.351,-9.01" /><path
         id="path4780"
         style="fill:#dcddde;fill-opacity:1;fill-rule:nonzero;stroke:#636567;stroke-width:1.5;stroke-linecap:round;stroke-linejoin:round;stroke-miterlimit:10;stroke-dasharray:none;stroke-opacity:1"
         d="m 609.2227,297.3467 c 0,0 1.661,-2.605 0.814,-5.425" /><g
         clip-path="url(#clipPath5332)"
         id="g5338"
         style="opacity:0.25"><g
           transform="translate(581.0293,138.1582)"
           id="g5336"><path
             d="m 0,0 c 0,-0.936 -15.98,-1.694 -35.693,-1.694 -19.714,0 -35.695,0.758 -35.695,1.694 0,0.936 15.981,1.694 35.695,1.694 C -15.98,1.694 0,0.936 0,0"
             style="fill:#231f20;fill-opacity:1;fill-rule:nonzero;stroke:none"
             id="path5334" /></g></g></g></g></svg>
